<svg width="16" height="16" viewBox="0 0 16 16" fill="none" xmlns="http://www.w3.org/2000/svg">
<path d="M9.88666 7.52655L7.05999 4.69988C6.99802 4.6374 6.92428 4.5878 6.84304 4.55396C6.7618 4.52011 6.67467 4.50269 6.58666 4.50269C6.49865 4.50269 6.41151 4.52011 6.33027 4.55396C6.24904 4.5878 6.1753 4.6374 6.11333 4.69988C5.98916 4.82479 5.91946 4.99376 5.91946 5.16988C5.91946 5.34601 5.98916 5.51498 6.11333 5.63988L8.47333 7.99988L6.11333 10.3599C5.98916 10.4848 5.91946 10.6538 5.91946 10.8299C5.91946 11.006 5.98916 11.175 6.11333 11.2999C6.17562 11.3617 6.2495 11.4106 6.33072 11.4437C6.41195 11.4769 6.49892 11.4937 6.58666 11.4932C6.6744 11.4937 6.76137 11.4769 6.8426 11.4437C6.92382 11.4106 6.9977 11.3617 7.05999 11.2999L9.88666 8.47322C9.94915 8.41124 9.99874 8.33751 10.0326 8.25627C10.0664 8.17503 10.0839 8.08789 10.0839 7.99988C10.0839 7.91188 10.0664 7.82474 10.0326 7.7435C9.99874 7.66226 9.94915 7.58853 9.88666 7.52655Z" fill="#29384E"/>
</svg>
