<svg width="28" height="28" viewBox="0 0 28 28" fill="none" xmlns="http://www.w3.org/2000/svg">
<path d="M22.2488 5.75164C21.1726 4.63735 19.8852 3.74856 18.4618 3.13712C17.0385 2.52568 15.5076 2.20384 13.9585 2.19038C12.4094 2.17692 10.8731 2.47211 9.43933 3.05872C8.00554 3.64533 6.70293 4.51161 5.60752 5.60703C4.5121 6.70244 3.64582 8.00505 3.05921 9.43884C2.4726 10.8726 2.17741 12.4089 2.19087 13.958C2.20433 15.5071 2.52617 17.038 3.13761 18.4614C3.74905 19.8847 4.63784 21.1721 5.75213 22.2483C6.82834 23.3626 8.11569 24.2514 9.53907 24.8628C10.9625 25.4743 12.4934 25.7961 14.0424 25.8096C15.5915 25.823 17.1278 25.5278 18.5616 24.9412C19.9954 24.3546 21.298 23.4883 22.3934 22.3929C23.4888 21.2975 24.3551 19.9949 24.9417 18.5611C25.5283 17.1273 25.8235 15.591 25.81 14.042C25.7966 12.4929 25.4747 10.962 24.8633 9.53858C24.2519 8.1152 23.3631 6.82785 22.2488 5.75164Z" fill="#A9AFB8"/>
<path d="M17.9436 9.42309C18.0856 9.48224 18.2144 9.5689 18.3227 9.67809C18.4319 9.78639 18.5186 9.91524 18.5777 10.0572C18.6369 10.1992 18.6673 10.3514 18.6673 10.5052C18.6673 10.659 18.6369 10.8113 18.5777 10.9533C18.5186 11.0952 18.4319 11.2241 18.3227 11.3324L15.6433 14.0002L18.3227 16.668C18.4319 16.7763 18.5186 16.9051 18.5777 17.0471C18.6369 17.189 18.6673 17.3413 18.6673 17.4951C18.6673 17.6489 18.6369 17.8012 18.5777 17.9431C18.5186 18.0851 18.4319 18.2139 18.3227 18.3222C18.2144 18.4314 18.0856 18.5181 17.9436 18.5772C17.8016 18.6364 17.6494 18.6668 17.4956 18.6668C17.3418 18.6668 17.1895 18.6364 17.0476 18.5772C16.9056 18.5181 16.7768 18.4314 16.6685 18.3222L14.0007 15.6428L11.3329 18.3222C11.2246 18.4314 11.0957 18.5181 10.9537 18.5772C10.8118 18.6364 10.6595 18.6668 10.5057 18.6668C10.3519 18.6668 10.1997 18.6364 10.0577 18.5772C9.91573 18.5181 9.78688 18.4314 9.67858 18.3222C9.56939 18.2139 9.48272 18.0851 9.42358 17.9431C9.36444 17.8012 9.33398 17.6489 9.33398 17.4951C9.33398 17.3413 9.36444 17.189 9.42358 17.0471C9.48272 16.9051 9.56939 16.7763 9.67858 16.668L12.358 14.0002L9.67858 11.3324C9.45921 11.113 9.33597 10.8155 9.33597 10.5052C9.33597 10.195 9.45921 9.89746 9.67858 9.67809C9.89795 9.45872 10.1955 9.33548 10.5057 9.33548C10.816 9.33548 11.1135 9.45872 11.3329 9.67809L14.0007 12.3575L16.6685 9.67809C16.7768 9.5689 16.9056 9.48224 17.0476 9.42309C17.1895 9.36395 17.3418 9.3335 17.4956 9.3335C17.6494 9.3335 17.8016 9.36395 17.9436 9.42309Z" fill="white"/>
</svg>
